{
	"asset":{
		"generator":"Khronos glTF Blender I/O v3.6.27",
		"version":"2.0"
	},
	"scene":0,
	"scenes":[
		{
			"name":"Scene",
			"nodes":[
				0
			]
		}
	],
	"nodes":[
		{
			"mesh":0,
			"name":"diamant",
			"rotation":[
				-0.00860481709241867,
				0.7322033643722534,
				0.6809688806533813,
				0.009252164512872696
			],
			"scale":[
				0.4000000059604645,
				0.40000003576278687,
				0.4000000059604645
			],
			"translation":[
				0,
				0.5007782578468323,
				0
			]
		}
	],
	"materials":[
		{
			"doubleSided":true,
			"name":"dia",
			"pbrMetallicRoughness":{}
		}
	],
	"meshes":[
		{
			"name":"Mesh.015",
			"primitives":[
				{
					"attributes":{
						"POSITION":0,
						"NORMAL":1,
						"TEXCOORD_0":2
					},
					"indices":3,
					"material":0
				}
			]
		}
	],
	"accessors":[
		{
			"bufferView":0,
			"componentType":5126,
			"count":341,
			"max":[
				0.9611274600028992,
				0.9564787149429321,
				1.3124560117721558
			],
			"min":[
				-0.942865252494812,
				-0.9475142955780029,
				-0.15645617246627808
			],
			"type":"VEC3"
		},
		{
			"bufferView":1,
			"componentType":5126,
			"count":341,
			"type":"VEC3"
		},
		{
			"bufferView":2,
			"componentType":5126,
			"count":341,
			"type":"VEC2"
		},
		{
			"bufferView":3,
			"componentType":5123,
			"count":594,
			"type":"SCALAR"
		}
	],
	"bufferViews":[
		{
			"buffer":0,
			"byteLength":4092,
			"byteOffset":0,
			"target":34962
		},
		{
			"buffer":0,
			"byteLength":4092,
			"byteOffset":4092,
			"target":34962
		},
		{
			"buffer":0,
			"byteLength":2728,
			"byteOffset":8184,
			"target":34962
		},
		{
			"buffer":0,
			"byteLength":1188,
			"byteOffset":10912,
			"target":34963
		}
	],
	"buffers":[
		{
			"byteLength":12100,
			"uri":"data:application/octet-stream;base64,"
		}
	]
}
