{
	"asset":{
		"generator":"Khronos glTF Blender I/O v3.6.27",
		"version":"2.0"
	},
	"scene":0,
	"scenes":[
		{
			"name":"Scene",
			"nodes":[
				2
			]
		}
	],
	"nodes":[
		{
			"mesh":0,
			"name":"faceBasse"
		},
		{
			"mesh":1,
			"name":"objectBas"
		},
		{
			"children":[
				0,
				1
			],
			"name":"PartieBasse",
			"rotation":[
				0.5,
				0.5,
				-0.5,
				0.5000000596046448
			]
		}
	],
	"materials":[
		{
			"doubleSided":true,
			"name":"dia",
			"pbrMetallicRoughness":{}
		},
		{
			"doubleSided":true,
			"name":"Ecrin",
			"pbrMetallicRoughness":{
				"baseColorFactor":[
					0.8000000715255737,
					0.036837734282016754,
					0.10835643112659454,
					1
				],
				"metallicFactor":0,
				"roughnessFactor":0.5
			}
		}
	],
	"meshes":[
		{
			"name":"Mesh.019",
			"primitives":[
				{
					"attributes":{
						"POSITION":0,
						"NORMAL":1,
						"TEXCOORD_0":2
					},
					"indices":3,
					"material":0
				}
			]
		},
		{
			"name":"Mesh.018",
			"primitives":[
				{
					"attributes":{
						"POSITION":4,
						"NORMAL":5,
						"TEXCOORD_0":6
					},
					"indices":7,
					"material":1
				}
			]
		}
	],
	"accessors":[
		{
			"bufferView":0,
			"componentType":5126,
			"count":28,
			"max":[
				1.0941652059555054,
				1.0337798595428467,
				-0.3733677268028259
			],
			"min":[
				-1.094164490699768,
				-1.0338066816329956,
				-0.3733677268028259
			],
			"type":"VEC3"
		},
		{
			"bufferView":1,
			"componentType":5126,
			"count":28,
			"type":"VEC3"
		},
		{
			"bufferView":2,
			"componentType":5126,
			"count":28,
			"type":"VEC2"
		},
		{
			"bufferView":3,
			"componentType":5123,
			"count":78,
			"type":"SCALAR"
		},
		{
			"bufferView":4,
			"componentType":5126,
			"count":868,
			"max":[
				1.2694422006607056,
				1.2694414854049683,
				-0.13870280981063843
			],
			"min":[
				-1.269441843032837,
				-1.2694435119628906,
				-0.7184972167015076
			],
			"type":"VEC3"
		},
		{
			"bufferView":5,
			"componentType":5126,
			"count":868,
			"type":"VEC3"
		},
		{
			"bufferView":6,
			"componentType":5126,
			"count":868,
			"type":"VEC2"
		},
		{
			"bufferView":7,
			"componentType":5123,
			"count":1422,
			"type":"SCALAR"
		}
	],
	"bufferViews":[
		{
			"buffer":0,
			"byteLength":336,
			"byteOffset":0,
			"target":34962
		},
		{
			"buffer":0,
			"byteLength":336,
			"byteOffset":336,
			"target":34962
		},
		{
			"buffer":0,
			"byteLength":224,
			"byteOffset":672,
			"target":34962
		},
		{
			"buffer":0,
			"byteLength":156,
			"byteOffset":896,
			"target":34963
		},
		{
			"buffer":0,
			"byteLength":10416,
			"byteOffset":1052,
			"target":34962
		},
		{
			"buffer":0,
			"byteLength":10416,
			"byteOffset":11468,
			"target":34962
		},
		{
			"buffer":0,
			"byteLength":6944,
			"byteOffset":21884,
			"target":34962
		},
		{
			"buffer":0,
			"byteLength":2844,
			"byteOffset":28828,
			"target":34963
		}
	],
	"buffers":[
		{
			"byteLength":31672,
			"uri":"data:application/octet-stream;base64,"
		}
	]
}
