{
	"asset":{
		"generator":"Khronos glTF Blender I/O v3.6.27",
		"version":"2.0"
	},
	"scene":0,
	"scenes":[
		{
			"name":"Scene",
			"nodes":[
				0,
				8
			]
		}
	],
	"nodes":[
		{
			"mesh":0,
			"name":"diamant",
			"rotation":[
				-0.00860481709241867,
				0.7322033643722534,
				0.6809688806533813,
				0.009252164512872696
			],
			"scale":[
				0.4000000059604645,
				0.40000003576278687,
				0.4000000059604645
			],
			"translation":[
				0,
				0.5007782578468323,
				1.1809558868408203
			]
		},
		{
			"mesh":1,
			"name":"faceBasse"
		},
		{
			"mesh":2,
			"name":"objectBas"
		},
		{
			"children":[
				1,
				2
			],
			"name":"PartieBasse"
		},
		{
			"mesh":3,
			"name":"faceHaute"
		},
		{
			"mesh":4,
			"name":"objetHaut"
		},
		{
			"children":[
				4,
				5
			],
			"name":"polySurface2"
		},
		{
			"children":[
				6
			],
			"name":"partieHaute",
			"rotation":[
				0,
				-0.15532560646533966,
				0,
				0.9878634214401245
			],
			"translation":[
				-0.15807032585144043,
				0,
				-0.42405247688293457
			]
		},
		{
			"children":[
				3,
				7
			],
			"name":"Ecrin",
			"rotation":[
				0.5,
				0.5,
				-0.5,
				0.5000000596046448
			]
		}
	],
	"materials":[
		{
			"alphaMode":"BLEND",
			"doubleSided":true,
			"name":"dia",
			"pbrMetallicRoughness":{}
		},
		{
			"doubleSided":true,
			"name":"Ecrin",
			"pbrMetallicRoughness":{
				"baseColorFactor":[
					0.8000000715255737,
					0.036837734282016754,
					0.10835643112659454,
					1
				],
				"metallicFactor":0,
				"roughnessFactor":0.5
			}
		}
	],
	"meshes":[
		{
			"name":"Mesh.015",
			"primitives":[
				{
					"attributes":{
						"POSITION":0,
						"NORMAL":1,
						"TEXCOORD_0":2
					},
					"indices":3,
					"material":0
				}
			]
		},
		{
			"name":"Mesh.019",
			"primitives":[
				{
					"attributes":{
						"POSITION":4,
						"NORMAL":5,
						"TEXCOORD_0":6
					},
					"indices":7,
					"material":0
				}
			]
		},
		{
			"name":"Mesh.018",
			"primitives":[
				{
					"attributes":{
						"POSITION":8,
						"NORMAL":9,
						"TEXCOORD_0":10
					},
					"indices":11,
					"material":1
				}
			]
		},
		{
			"name":"Mesh.017",
			"primitives":[
				{
					"attributes":{
						"POSITION":12,
						"NORMAL":13,
						"TEXCOORD_0":14
					},
					"indices":15,
					"material":0
				}
			]
		},
		{
			"name":"Mesh.016",
			"primitives":[
				{
					"attributes":{
						"POSITION":16,
						"NORMAL":17,
						"TEXCOORD_0":18
					},
					"indices":19,
					"material":1
				}
			]
		}
	],
	"accessors":[
		{
			"bufferView":0,
			"componentType":5126,
			"count":341,
			"max":[
				0.9611274600028992,
				0.9564787149429321,
				1.3124560117721558
			],
			"min":[
				-0.942865252494812,
				-0.9475142955780029,
				-0.15645617246627808
			],
			"type":"VEC3"
		},
		{
			"bufferView":1,
			"componentType":5126,
			"count":341,
			"type":"VEC3"
		},
		{
			"bufferView":2,
			"componentType":5126,
			"count":341,
			"type":"VEC2"
		},
		{
			"bufferView":3,
			"componentType":5123,
			"count":594,
			"type":"SCALAR"
		},
		{
			"bufferView":4,
			"componentType":5126,
			"count":28,
			"max":[
				1.0941652059555054,
				1.0337798595428467,
				-0.3733677268028259
			],
			"min":[
				-1.094164490699768,
				-1.0338066816329956,
				-0.3733677268028259
			],
			"type":"VEC3"
		},
		{
			"bufferView":5,
			"componentType":5126,
			"count":28,
			"type":"VEC3"
		},
		{
			"bufferView":6,
			"componentType":5126,
			"count":28,
			"type":"VEC2"
		},
		{
			"bufferView":7,
			"componentType":5123,
			"count":78,
			"type":"SCALAR"
		},
		{
			"bufferView":8,
			"componentType":5126,
			"count":868,
			"max":[
				1.2694422006607056,
				1.2694414854049683,
				-0.13870280981063843
			],
			"min":[
				-1.269441843032837,
				-1.2694435119628906,
				-0.7184972167015076
			],
			"type":"VEC3"
		},
		{
			"bufferView":9,
			"componentType":5126,
			"count":868,
			"type":"VEC3"
		},
		{
			"bufferView":10,
			"componentType":5126,
			"count":868,
			"type":"VEC2"
		},
		{
			"bufferView":11,
			"componentType":5123,
			"count":1422,
			"type":"SCALAR"
		},
		{
			"bufferView":12,
			"componentType":5126,
			"count":4,
			"max":[
				1.00921630859375,
				1.01468825340271,
				-1.0171895027160645
			],
			"min":[
				-1.020331621170044,
				-1.0148612260818481,
				-1.0171905755996704
			],
			"type":"VEC3"
		},
		{
			"bufferView":13,
			"componentType":5126,
			"count":4,
			"type":"VEC3"
		},
		{
			"bufferView":14,
			"componentType":5126,
			"count":4,
			"type":"VEC2"
		},
		{
			"bufferView":15,
			"componentType":5123,
			"count":6,
			"type":"SCALAR"
		},
		{
			"bufferView":16,
			"componentType":5126,
			"count":376,
			"max":[
				1.269441843032837,
				1.2749147415161133,
				-0.714685320854187
			],
			"min":[
				-1.2805578708648682,
				-1.2750858068466187,
				-1.2944811582565308
			],
			"type":"VEC3"
		},
		{
			"bufferView":17,
			"componentType":5126,
			"count":376,
			"type":"VEC3"
		},
		{
			"bufferView":18,
			"componentType":5126,
			"count":376,
			"type":"VEC2"
		},
		{
			"bufferView":19,
			"componentType":5123,
			"count":678,
			"type":"SCALAR"
		}
	],
	"bufferViews":[
		{
			"buffer":0,
			"byteLength":4092,
			"byteOffset":0,
			"target":34962
		},
		{
			"buffer":0,
			"byteLength":4092,
			"byteOffset":4092,
			"target":34962
		},
		{
			"buffer":0,
			"byteLength":2728,
			"byteOffset":8184,
			"target":34962
		},
		{
			"buffer":0,
			"byteLength":1188,
			"byteOffset":10912,
			"target":34963
		},
		{
			"buffer":0,
			"byteLength":336,
			"byteOffset":12100,
			"target":34962
		},
		{
			"buffer":0,
			"byteLength":336,
			"byteOffset":12436,
			"target":34962
		},
		{
			"buffer":0,
			"byteLength":224,
			"byteOffset":12772,
			"target":34962
		},
		{
			"buffer":0,
			"byteLength":156,
			"byteOffset":12996,
			"target":34963
		},
		{
			"buffer":0,
			"byteLength":10416,
			"byteOffset":13152,
			"target":34962
		},
		{
			"buffer":0,
			"byteLength":10416,
			"byteOffset":23568,
			"target":34962
		},
		{
			"buffer":0,
			"byteLength":6944,
			"byteOffset":33984,
			"target":34962
		},
		{
			"buffer":0,
			"byteLength":2844,
			"byteOffset":40928,
			"target":34963
		},
		{
			"buffer":0,
			"byteLength":48,
			"byteOffset":43772,
			"target":34962
		},
		{
			"buffer":0,
			"byteLength":48,
			"byteOffset":43820,
			"target":34962
		},
		{
			"buffer":0,
			"byteLength":32,
			"byteOffset":43868,
			"target":34962
		},
		{
			"buffer":0,
			"byteLength":12,
			"byteOffset":43900,
			"target":34963
		},
		{
			"buffer":0,
			"byteLength":4512,
			"byteOffset":43912,
			"target":34962
		},
		{
			"buffer":0,
			"byteLength":4512,
			"byteOffset":48424,
			"target":34962
		},
		{
			"buffer":0,
			"byteLength":3008,
			"byteOffset":52936,
			"target":34962
		},
		{
			"buffer":0,
			"byteLength":1356,
			"byteOffset":55944,
			"target":34963
		}
	],
	"buffers":[
		{
			"byteLength":57300,
			"uri":"data:application/octet-stream;base64,"
		}
	]
}
