{
	"asset":{
		"generator":"Khronos glTF Blender I/O v3.6.27",
		"version":"2.0"
	},
	"scene":0,
	"scenes":[
		{
			"name":"Scene",
			"nodes":[
				3
			]
		}
	],
	"nodes":[
		{
			"mesh":0,
			"name":"faceHaute"
		},
		{
			"mesh":1,
			"name":"objetHaut"
		},
		{
			"children":[
				0,
				1
			],
			"name":"polySurface2"
		},
		{
			"children":[
				2
			],
			"name":"partieHaute",
			"rotation":[
				0.5001270771026611,
				0.5001271963119507,
				-0.4998728036880493,
				0.4998728036880493
			],
			"translation":[
				0,
				-0.7208325862884521,
				1.2703907489776611
			]
		}
	],
	"materials":[
		{
			"alphaMode":"BLEND",
			"doubleSided":true,
			"name":"dia",
			"pbrMetallicRoughness":{}
		},
		{
			"doubleSided":true,
			"name":"Ecrin",
			"pbrMetallicRoughness":{
				"baseColorFactor":[
					0.8000000715255737,
					0.036837734282016754,
					0.10835643112659454,
					1
				],
				"metallicFactor":0,
				"roughnessFactor":0.5
			}
		}
	],
	"meshes":[
		{
			"name":"Mesh.017",
			"primitives":[
				{
					"attributes":{
						"POSITION":0,
						"NORMAL":1,
						"TEXCOORD_0":2
					},
					"indices":3,
					"material":0
				}
			]
		},
		{
			"name":"Mesh.016",
			"primitives":[
				{
					"attributes":{
						"POSITION":4,
						"NORMAL":5,
						"TEXCOORD_0":6
					},
					"indices":7,
					"material":1
				}
			]
		}
	],
	"accessors":[
		{
			"bufferView":0,
			"componentType":5126,
			"count":4,
			"max":[
				1.00921630859375,
				1.01468825340271,
				-1.0171895027160645
			],
			"min":[
				-1.020331621170044,
				-1.0148612260818481,
				-1.0171905755996704
			],
			"type":"VEC3"
		},
		{
			"bufferView":1,
			"componentType":5126,
			"count":4,
			"type":"VEC3"
		},
		{
			"bufferView":2,
			"componentType":5126,
			"count":4,
			"type":"VEC2"
		},
		{
			"bufferView":3,
			"componentType":5123,
			"count":6,
			"type":"SCALAR"
		},
		{
			"bufferView":4,
			"componentType":5126,
			"count":376,
			"max":[
				1.269441843032837,
				1.2749147415161133,
				-0.714685320854187
			],
			"min":[
				-1.2805578708648682,
				-1.2750858068466187,
				-1.2944811582565308
			],
			"type":"VEC3"
		},
		{
			"bufferView":5,
			"componentType":5126,
			"count":376,
			"type":"VEC3"
		},
		{
			"bufferView":6,
			"componentType":5126,
			"count":376,
			"type":"VEC2"
		},
		{
			"bufferView":7,
			"componentType":5123,
			"count":678,
			"type":"SCALAR"
		}
	],
	"bufferViews":[
		{
			"buffer":0,
			"byteLength":48,
			"byteOffset":0,
			"target":34962
		},
		{
			"buffer":0,
			"byteLength":48,
			"byteOffset":48,
			"target":34962
		},
		{
			"buffer":0,
			"byteLength":32,
			"byteOffset":96,
			"target":34962
		},
		{
			"buffer":0,
			"byteLength":12,
			"byteOffset":128,
			"target":34963
		},
		{
			"buffer":0,
			"byteLength":4512,
			"byteOffset":140,
			"target":34962
		},
		{
			"buffer":0,
			"byteLength":4512,
			"byteOffset":4652,
			"target":34962
		},
		{
			"buffer":0,
			"byteLength":3008,
			"byteOffset":9164,
			"target":34962
		},
		{
			"buffer":0,
			"byteLength":1356,
			"byteOffset":12172,
			"target":34963
		}
	],
	"buffers":[
		{
			"byteLength":13528,
			"uri":"data:application/octet-stream;base64,"
		}
	]
}
