{
	"asset":{
		"generator":"Khronos glTF Blender I/O v3.6.27",
		"version":"2.0"
	},
	"scene":0,
	"scenes":[
		{
			"name":"Scene",
			"nodes":[
				0
			]
		}
	],
	"nodes":[
		{
			"mesh":0,
			"name":"pSuperShape1",
			"rotation":[
				0.7071068286895752,
				0,
				0,
				0.7071068286895752
			]
		}
	],
	"animations":[
		{
			"channels":[
				{
					"sampler":0,
					"target":{
						"node":0,
						"path":"translation"
					}
				},
				{
					"sampler":1,
					"target":{
						"node":0,
						"path":"rotation"
					}
				}
			],
			"name":"pSuperShape1|Take 001|BaseLayer",
			"samplers":[
				{
					"input":4,
					"interpolation":"LINEAR",
					"output":5
				},
				{
					"input":6,
					"interpolation":"STEP",
					"output":7
				}
			]
		}
	],
	"materials":[
		{
			"doubleSided":true,
			"name":"lambert1",
			"pbrMetallicRoughness":{
				"baseColorFactor":[
					0.5,
					0.5,
					0.5,
					1
				],
				"metallicFactor":0,
				"roughnessFactor":0.5527864098548889
			}
		}
	],
	"meshes":[
		{
			"name":"Mesh",
			"primitives":[
				{
					"attributes":{
						"POSITION":0,
						"NORMAL":1,
						"TEXCOORD_0":2
					},
					"indices":3,
					"material":0
				}
			]
		}
	],
	"accessors":[
		{
			"bufferView":0,
			"componentType":5126,
			"count":4548,
			"max":[
				1,
				1,
				1
			],
			"min":[
				-1,
				-1,
				-1
			],
			"type":"VEC3"
		},
		{
			"bufferView":1,
			"componentType":5126,
			"count":4548,
			"type":"VEC3"
		},
		{
			"bufferView":2,
			"componentType":5126,
			"count":4548,
			"type":"VEC2"
		},
		{
			"bufferView":3,
			"componentType":5123,
			"count":24192,
			"type":"SCALAR"
		},
		{
			"bufferView":4,
			"componentType":5126,
			"count":69,
			"max":[
				2.8333333333333335
			],
			"min":[
				0
			],
			"type":"SCALAR"
		},
		{
			"bufferView":5,
			"componentType":5126,
			"count":69,
			"type":"VEC3"
		},
		{
			"bufferView":6,
			"componentType":5126,
			"count":2,
			"max":[
				2.8333333333333335
			],
			"min":[
				0
			],
			"type":"SCALAR"
		},
		{
			"bufferView":7,
			"componentType":5126,
			"count":2,
			"type":"VEC4"
		}
	],
	"bufferViews":[
		{
			"buffer":0,
			"byteLength":54576,
			"byteOffset":0,
			"target":34962
		},
		{
			"buffer":0,
			"byteLength":54576,
			"byteOffset":54576,
			"target":34962
		},
		{
			"buffer":0,
			"byteLength":36384,
			"byteOffset":109152,
			"target":34962
		},
		{
			"buffer":0,
			"byteLength":48384,
			"byteOffset":145536,
			"target":34963
		},
		{
			"buffer":0,
			"byteLength":276,
			"byteOffset":193920
		},
		{
			"buffer":0,
			"byteLength":828,
			"byteOffset":194196
		},
		{
			"buffer":0,
			"byteLength":8,
			"byteOffset":195024
		},
		{
			"buffer":0,
			"byteLength":32,
			"byteOffset":195032
		}
	],
	"buffers":[
		{
			"byteLength":195064,
			"uri":"data:application/octet-stream;base64,"
		}
	]
}
